<svg preserveAspectRatio="none" overflow="visible" style="display: block;" width="161.304" height="20" viewBox="0 0 161.304 20" fill="none" xmlns="http://www.w3.org/2000/svg">
<g id="AlibabaCloudLogo 1" clip-path="url(#clip0_0_16)">
<path id="Vector" d="M21.7349 8.67169H10.8674V11.0717H21.7349V8.67169Z" fill="white"/>
<path id="Vector_2" d="M27.1551 -0.0751953H19.9733L21.7078 2.35147L26.9654 3.9248C27.941 4.21814 28.5643 5.1248 28.5372 6.05814V13.7915C28.5372 14.7515 27.9139 15.6315 26.9654 15.9248L21.7349 17.4981L19.9733 19.9248H27.1551C30.1633 19.9248 32.5752 17.5248 32.5752 14.5915V5.25814C32.6023 2.3248 30.1633 -0.0751953 27.1551 -0.0751953Z" fill="white"/>
<path id="Vector_3" d="M5.42017 -0.0751953H12.6019L10.8674 2.35147L5.63698 3.9248C4.66135 4.21814 4.03803 5.1248 4.06513 6.05814V13.7915C4.06513 14.7515 4.68845 15.6315 5.63698 15.9248L10.8674 17.4981L12.6019 19.9248H5.42017C2.43908 19.9248 0 17.5248 0 14.5915V5.25814C0 2.3248 2.43908 -0.0751953 5.42017 -0.0751953Z" fill="white"/>
<path id="Vector_4" d="M120.572 13.8984C120.572 15.6317 119.135 17.0184 117.347 17.0184C115.558 17.0184 114.122 15.605 114.122 13.8984V6.24504C114.122 4.5117 115.558 3.12504 117.347 3.12504C119.108 3.12504 120.572 4.53837 120.572 6.24504V6.32504H123.038V6.21837C123.038 3.20504 120.49 0.725037 117.347 0.725037C114.203 0.725037 111.656 3.20504 111.656 6.24504V13.8717C111.656 16.9117 114.203 19.3917 117.347 19.3917C120.463 19.3917 123.011 16.9117 123.038 13.8717V13.7917H120.572V13.8984Z" fill="white"/>
<path id="Vector_5" d="M133.363 5.65839C130.762 5.65839 128.594 7.65839 128.485 10.1917V14.8851C128.621 17.4184 130.762 19.4184 133.363 19.4184C135.965 19.4184 138.106 17.4184 138.241 14.8851V10.1917C138.133 7.65839 135.992 5.65839 133.363 5.65839ZM135.775 14.5917C135.748 15.9251 134.691 16.9651 133.363 16.9651C132.035 16.9651 130.978 15.9251 130.951 14.5917V10.4584C130.951 9.15172 132.035 8.08505 133.363 8.08505C134.691 8.08505 135.775 9.15172 135.775 10.4584V14.5917Z" fill="white"/>
<path id="Vector_6" d="M126.724 0.725037H124.257V19.125H126.724V0.725037Z" fill="white"/>
<path id="Vector_7" d="M59.0528 5.65839H56.5866V19.0984H59.0528V5.65839Z" fill="white"/>
<path id="Vector_8" d="M54.1475 0.725037H51.6813V19.125H54.1475V0.725037Z" fill="white"/>
<path id="Vector_9" d="M45.4752 0.725037H42.467L37.5076 19.0984V19.125H39.9466L41.2746 14.245L46.6948 14.2717L47.9956 19.125V19.1517H50.4347L45.4752 0.725037ZM46.0443 11.845H41.925L43.9847 4.21837L46.0443 11.845Z" fill="white"/>
<path id="Vector_10" d="M147.32 14.8584C147.32 16.1651 146.236 17.2317 144.908 17.2317C143.58 17.2317 142.496 16.1651 142.496 14.8584V5.65839H140.03V15.2584C140.03 17.5517 141.927 19.4184 144.258 19.4184C144.691 19.4184 145.098 19.3651 145.505 19.2317C145.748 19.1517 145.965 19.0717 146.182 18.9651C146.561 18.7784 146.914 18.5384 147.212 18.2451L147.32 18.1384V19.1251H149.786V5.65839H147.32V14.8584Z" fill="white"/>
<path id="Vector_11" d="M59.0528 0.725037H56.5866V3.1517H59.0528V0.725037Z" fill="white"/>
<path id="Vector_12" d="M67.0205 5.65837C65.9093 5.65837 64.8524 6.08504 64.0665 6.85837L63.9581 6.96504V0.725037H61.4919V19.125H63.9581V18.1384L64.0665 18.245C64.8524 19.0184 65.9093 19.445 67.0205 19.445C69.3511 19.445 71.2482 17.5784 71.2482 15.285V9.81837C71.2482 7.49837 69.3511 5.65837 67.0205 5.65837ZM68.8091 10.245V14.805C68.8091 16.1117 67.7251 17.205 66.37 17.205C65.0421 17.205 63.931 16.1384 63.931 14.805V10.245C63.931 8.93837 65.015 7.84504 66.37 7.84504C67.7251 7.8717 68.8091 8.93837 68.8091 10.245Z" fill="white"/>
<path id="Vector_13" d="M89.8936 5.6317C88.7824 5.6317 87.7255 6.05837 86.9396 6.8317L86.8312 6.93837V0.725037H84.365V19.125H86.8312V18.1384L86.9396 18.245C87.7255 19.0184 88.7824 19.445 89.8936 19.445C92.2242 19.445 94.1213 17.5784 94.1213 15.285V9.7917C94.1213 7.49837 92.2242 5.6317 89.8936 5.6317ZM91.6822 10.245V14.805C91.6822 16.1117 90.5982 17.205 89.2431 17.205C87.9152 17.205 86.8041 16.1384 86.8041 14.805V10.245C86.8041 8.93837 87.8881 7.84504 89.2431 7.84504C90.5982 7.84504 91.6822 8.93837 91.6822 10.245Z" fill="white"/>
<path id="Vector_14" d="M158.865 0.725037V6.93837L158.757 6.8317C157.971 6.05837 156.914 5.6317 155.803 5.6317C153.472 5.6317 151.575 7.49837 151.575 9.7917V15.2317V15.2584C151.575 17.5517 153.472 19.3917 155.803 19.3917C156.914 19.3917 157.971 18.965 158.757 18.1917L158.865 18.085V19.0717H161.331V0.725037H158.865ZM158.838 10.245V14.805C158.838 16.1117 157.754 17.205 156.399 17.205C155.071 17.205 153.96 16.1384 153.96 14.805V10.245C153.96 8.93837 155.044 7.84504 156.399 7.84504C157.754 7.84504 158.838 8.93837 158.838 10.245Z" fill="white"/>
<path id="Vector_15" d="M82.6034 10.2184C82.6034 10.0851 82.5763 9.92505 82.5492 9.73839V9.68505C82.4137 8.96505 82.1427 8.27172 81.7091 7.65839C80.8419 6.45839 79.5139 5.73839 78.0505 5.65839C78.0234 5.65839 77.8608 5.65839 77.7795 5.65839C76.6412 5.65839 75.5301 6.05839 74.6358 6.77839C73.7686 7.49839 73.1723 8.48505 72.9555 9.60505V9.63172H75.3675V9.60505C75.5843 8.48505 76.587 7.68505 77.7253 7.68505C78.3486 7.68505 78.9448 7.92505 79.4055 8.35172C79.8662 8.77839 80.1102 9.36505 80.1373 9.97839V11.0984H76.6412C74.3106 11.0984 72.4135 12.9651 72.4135 15.2584C72.4135 17.1784 73.7686 18.8051 75.5843 19.2851C75.6114 19.2851 75.6385 19.2851 75.6385 19.3117C75.7198 19.3384 75.8011 19.3384 75.8824 19.3651C75.9637 19.3917 76.0721 19.3917 76.1805 19.4184C76.2076 19.4184 76.2076 19.4184 76.2347 19.4184C76.4244 19.4451 76.6412 19.4451 76.8852 19.4451C77.4814 19.4451 77.9963 19.3651 78.3486 19.2317C78.9719 19.0451 79.541 18.6984 80.0288 18.2451L80.1373 18.1384V19.1251H82.6034V17.5251V10.2184ZM77.1291 12.9117H80.1102V14.6184C80.1102 15.8984 79.1616 17.0184 77.8879 17.2584C77.6982 17.3117 77.5085 17.3117 77.3459 17.3117C76.9123 17.3117 76.5057 17.2051 76.0992 16.9651C75.9908 16.9117 75.8824 16.8317 75.774 16.7784C75.6385 16.6717 75.503 16.5384 75.3946 16.4051L75.3675 16.3784C75.0694 16.0051 74.9068 15.5517 74.9068 15.0717C74.9339 13.8717 75.9095 12.9117 77.1291 12.9117Z" fill="white"/>
<path id="Vector_16" d="M105.504 10.2184C105.504 10.0851 105.477 9.92505 105.449 9.73839V9.68505C105.314 8.96505 105.043 8.27172 104.609 7.65839C103.742 6.45839 102.414 5.73839 100.951 5.65839C100.924 5.65839 100.761 5.65839 100.68 5.65839C99.5415 5.65839 98.4303 6.05839 97.536 6.77839C96.6688 7.49839 96.0725 8.48505 95.8557 9.60505V9.63172H98.2677V9.60505C98.4845 8.48505 99.4872 7.68505 100.625 7.68505C101.249 7.68505 101.845 7.92505 102.306 8.35172C102.766 8.77839 103.01 9.36505 103.037 9.97839V11.0984H99.5414C97.2108 11.0984 95.3137 12.9651 95.3137 15.2584C95.3137 17.1784 96.6688 18.8051 98.4845 19.2851C98.5116 19.2851 98.5387 19.2851 98.5387 19.3117C98.62 19.3384 98.7013 19.3384 98.7826 19.3651C98.8639 19.3917 98.9723 19.3917 99.0807 19.4184C99.1078 19.4184 99.1078 19.4184 99.1349 19.4184C99.3246 19.4451 99.5415 19.4451 99.7854 19.4451C100.382 19.4451 100.896 19.3651 101.249 19.2317C101.872 19.0451 102.441 18.6984 102.929 18.2451L103.037 18.1384V19.1251H105.504V17.5251V10.2184ZM100.029 12.9117H103.01V14.6184C103.01 15.8984 102.062 17.0184 100.788 17.2584C100.598 17.3117 100.409 17.3117 100.246 17.3117C99.8125 17.3117 99.4059 17.2051 98.9994 16.9651C98.891 16.9117 98.7826 16.8317 98.6742 16.7784C98.5387 16.6717 98.4032 16.5384 98.2948 16.4051L98.2677 16.3784C97.9696 16.0051 97.807 15.5517 97.807 15.0717C97.8341 13.8984 98.8097 12.9117 100.029 12.9117Z" fill="white"/>
</g>
<defs>
<clipPath id="clip0_0_16">
<rect width="161.304" height="20" fill="white"/>
</clipPath>
</defs>
</svg>
