<svg preserveAspectRatio="none" overflow="visible" style="display: block;" width="1440" height="1024" viewBox="0 0 1440 1024" fill="none" xmlns="http://www.w3.org/2000/svg">
<g id="Layer Frame">
<line id="Line" x1="120" y1="149.5" x2="1320" y2="149.5" stroke="#C5242E" stroke-opacity="0.05" stroke-dasharray="4 7"/>
<line id="Line_2" x1="120" y1="867.5" x2="1320" y2="867.5" stroke="#C5242E" stroke-opacity="0.05" stroke-dasharray="4 7"/>
<line id="Line_3" x1="120" y1="961.5" x2="1320" y2="961.5" stroke="#8A8A90" stroke-opacity="0.08" stroke-dasharray="2 5"/>
<line id="Line_4" x1="44" y1="43.5" x2="66" y2="43.5" stroke="#8A8A90" stroke-opacity="0.16"/>
<line id="Line_5" x1="44.5" y1="44" x2="44.5" y2="66" stroke="#8A8A90" stroke-opacity="0.16"/>
<line id="Line_6" x1="1396" y1="44.5" x2="1374" y2="44.5" stroke="#8A8A90" stroke-opacity="0.16"/>
<line id="Line_7" x1="1396.5" y1="44" x2="1396.5" y2="66" stroke="#8A8A90" stroke-opacity="0.16"/>
<line id="Line_8" x1="44" y1="979.5" x2="66" y2="979.5" stroke="#8A8A90" stroke-opacity="0.16"/>
<line id="Line_9" x1="43.5" y1="980" x2="43.5" y2="958" stroke="#8A8A90" stroke-opacity="0.16"/>
<line id="Line_10" x1="1396" y1="980.5" x2="1374" y2="980.5" stroke="#8A8A90" stroke-opacity="0.16"/>
<line id="Line_11" x1="1395.5" y1="980" x2="1395.5" y2="958" stroke="#8A8A90" stroke-opacity="0.16"/>
<line id="Line_12" x1="176" y1="109.5" x2="184" y2="109.5" stroke="#C5242E" stroke-opacity="0.2"/>
<line id="Line_13" x1="180.5" y1="106" x2="180.5" y2="114" stroke="#C5242E" stroke-opacity="0.2"/>
<line id="Line_14" x1="997" y1="149.5" x2="1003" y2="149.5" stroke="#C5242E" stroke-opacity="0.16"/>
<line id="Line_15" x1="1000.5" y1="147" x2="1000.5" y2="153" stroke="#C5242E" stroke-opacity="0.16"/>
<line id="Line_16" x1="146" y1="899.5" x2="154" y2="899.5" stroke="#C5242E" stroke-opacity="0.2"/>
<line id="Line_17" x1="150.5" y1="896" x2="150.5" y2="904" stroke="#C5242E" stroke-opacity="0.2"/>
<line id="Line_18" x1="427" y1="959.5" x2="433" y2="959.5" stroke="#C5242E" stroke-opacity="0.16"/>
<line id="Line_19" x1="430.5" y1="957" x2="430.5" y2="963" stroke="#C5242E" stroke-opacity="0.16"/>
</g>
</svg>
